<svg xmlns="http://www.w3.org/2000/svg" viewBox="0 0 64 80" x="0px" y="0px"><polygon points="5 47.29 15.57 47.29 15.57 45.29 7 45.29 7 8.01 15.57 8.01 15.57 6.01 5 6.01 5 47.29"/><rect x="10.53" y="34.21" width="5.04" height="2"/><rect x="10.53" y="22.88" width="5.04" height="2"/><rect x="10.53" y="11.55" width="5.04" height="2"/><rect x="12.55" y="39.88" width="3.02" height="2"/><rect x="12.55" y="28.55" width="3.02" height="2"/><rect x="12.55" y="17.21" width="3.02" height="2"/><polygon points="23.13 45.28 25.13 45.28 25.13 27.15 47.31 27.15 47.31 45.28 49.31 45.28 49.31 27.15 58.38 27.15 58.38 25.15 49.31 25.15 49.31 6 47.31 6 47.31 25.15 25.13 25.15 25.13 6 23.13 6 23.13 25.15 18.09 25.15 18.09 27.15 23.13 27.15 23.13 45.28"/><polygon points="56.63 48.06 56.63 56.63 19.34 56.63 19.34 48.06 17.34 48.06 17.34 58.63 58.63 58.63 58.63 48.06 56.63 48.06"/><rect x="45.54" y="48.06" width="2" height="5.04"/><rect x="34.21" y="48.06" width="2" height="5.04"/><rect x="22.88" y="48.06" width="2" height="5.04"/><rect x="51.21" y="48.06" width="2" height="3.02"/><rect x="39.88" y="48.06" width="2" height="3.02"/><rect x="28.55" y="48.06" width="2" height="3.02"/><text x="0" y="79" fill="#000000" font-size="5px" font-weight="bold" font-family="'Helvetica Neue', Helvetica, Arial-Unicode, Arial, Sans-serif">Created by Ben Ehmke</text><text x="0" y="84" fill="#000000" font-size="5px" font-weight="bold" font-family="'Helvetica Neue', Helvetica, Arial-Unicode, Arial, Sans-serif">from the Noun Project</text></svg>